<?xml version="1.0" encoding="UTF-8"?>
<svg id="Calque_1" data-name="Calque 1" xmlns="http://www.w3.org/2000/svg" version="1.1" viewBox="0 0 300.6 100">
  <defs>
    <style>
      .cls-1 {
        fill: #202335;
        stroke-width: 0px;
      }
    </style>
  </defs>
  <path class="cls-1" d="M150,0c1.4.3,2.8.5,4.1.8,13.1,3.1,21.9,15.3,20.7,28.7-1.3,14.5-13.9,25.4-28.4,24.6-8.5-.5-15.3-4-20.3-11-.1-.2-.2-.4-.4-.6-2-3-2.8-6-.5-9.4,1.6-2.3,2.7-5,4-7.6,0-.1.1-.2.4-.5-.3,3.6.2,6.7,1.6,9.8,3.3,7.2,10.9,11.3,19.1,10.4,7.5-.9,14-7,15.4-14.7,1.4-7.7-2-15.2-8.8-19.2-6.6-3.9-15-3.3-20.8,1.8-2.2,2-4.1,4.5-5.6,7.1-3.4,5.8-6.4,11.7-9.5,17.6-3.1,5.8-7.3,10.5-13.3,13.5-16,8-35.3-1.6-38.6-19.2-2.9-15.3,7.3-29.7,22.7-32.1C94.2,0,96.5,0,99,0c6.7,1,12.3,3.9,16.7,8.8-1.8,2.4-3.5,4.8-5.2,7.2-.3-.3-.5-.5-.7-.8-4.4-5-10-7.3-16.7-6.4-10.1,1.3-17.5,11.1-15.7,21.1,1.4,7.6,5.9,12.8,13.4,14.9,7.6,2.1,14.2-.1,19.2-6.3,2.4-3,4.3-6.4,6.2-9.8,2.5-4.6,4.7-9.4,7.3-13.9,4.2-7.2,10.2-12.2,18.5-14.1C143,.5,143.9.2,144.9,0c1.7,0,3.3,0,5.1,0Z"/>
  <path class="cls-1" d="M195.8,11.9c0,3.8,0,7.5,0,11.4h25.9v8.5h-25.8v21h-9.1V1.4h38.2v8.3h-29.1v2.3Z"/>
  <path class="cls-1" d="M9.1,32.5c0,6.8,0,13.5,0,20.3H0V1.4h38.2v8.2H9.2v13.6h25.8v8.5h-1.5c-7.7,0-15.3,0-23,0-.4,0-.9.3-1.3.6Z"/>
  <path class="cls-1" d="M244.5,43v9.8h-9.1V1.4h9.1v41.6Z"/>
  <path class="cls-1" d="M57.7,21.1v31.8h-9V1.4h9v19.7Z"/>
  <path class="cls-1" d="M74.5,91.7c-2.3-3.5-4.6-6.8-7-10.5v18.2h-4.5v-25.9c1.4,0,2.8,0,4.2,0,.4,0,1,.5,1.2.8,2.4,3.7,4.8,7.3,7.2,11.2.3-.5.6-.8.9-1.2,2.1-3.3,4.3-6.7,6.5-10,.3-.4,1-.8,1.5-.8,1.3-.1,2.6,0,3.9,0v25.9h-4.5v-18c0,0-.2,0-.3-.1-2.6,3.9-5.2,7.8-8,11.9-.4-.6-.7-1-1.1-1.6Z"/>
  <path class="cls-1" d="M94.9,83v-9.4c1.6,0,3.1,0,4.6,0,.3,0,.7.5,1,.8,2.1,3.2,4.2,6.5,6.3,9.8.3.5.6.9,1,1.5,2.4-3.7,4.8-7.4,7.1-11,.5-.9,1.1-1.2,2.1-1.1,1.1,0,2.3,0,3.5,0v25.9h-4.5v-17.9c0,0-.2,0-.3-.1-2.6,3.9-5.2,7.8-8,11.9-2.7-4-5.3-7.9-8.1-12v18.2h-4.7v-16.5Z"/>
  <path class="cls-1" d="M155.1,86v-12.5c1.3,0,2.6,0,3.9,0,.4,0,.8.5,1.1.8,4.3,5.5,8.6,11,13,16.7v-17.5h4.6c0,8.6,0,17.1,0,25.7-2.6.7-3.7.4-5.3-1.7-4.1-5.3-8.3-10.6-12.6-16.3v18.1h-4.7v-13.4Z"/>
  <path class="cls-1" d="M55.5,93.6c-3.4,5.2-8.2,7.1-14,6.2-5.5-.8-9.3-4.1-10.8-9.6-2.1-7.6,2.4-15.1,10-16.8,7.9-1.8,15.3,3.1,16.5,11.1.5,3.2,0,6.2-1.8,9.1ZM37.9,79.7c-2.2,2.2-2.9,4.9-2.7,8,.3,4.7,4.7,8.4,9.3,8,3.9-.3,6.9-2.9,7.8-6.9.9-3.9-.7-8.1-3.9-10.1-3.3-2.1-7.3-1.8-10.6,1Z"/>
  <path class="cls-1" d="M142.5,93.9c1.4-1.5,1.8-3.3,1.8-5.2,0-4.6,0-9.1,0-13.7v-1.4h4.5c0,0,.2.1.2.2,0,5.7.1,11.5-.3,17.2-.4,5.1-3.9,8.4-9,8.9-3.5.3-6.9,0-9.7-2.6-2.2-2-3.1-4.7-3.2-7.6,0-5.3,0-10.6,0-16h4.6c0,4.7,0,9.4,0,14.2,0,1,0,2,.3,3,1.1,4.8,7,6.5,10.8,3.1Z"/>
  <path class="cls-1" d="M13.1,94.6c3.8,1.9,6,1.4,11.4-2.2,1,1,2,1.9,3,2.9-5.1,5.8-14.3,6.3-19.7,1-5.4-5.3-5.4-14.5,0-19.6,5.4-5.1,14.9-4.9,19.5.5-.9,1.1-1.9,2.2-2.9,3.3-.8-.6-1.4-1.2-2.1-1.6-3.2-2-6.4-2.3-9.6-.3-3.3,2.2-4.4,5.5-3.9,9.3.4,2.8,1.8,5.1,4.4,6.6Z"/>
  <path class="cls-1" d="M221.3,79.6c-1.3-2-2.6-3.9-3.9-6,1.8,0,3.4,0,5,0,.4,0,.8.5,1.1.9,2.2,3.4,4.3,6.8,6.6,10.4,1.1-1.8,2.2-3.4,3.2-5,.5-.8,1-1.6,1.5-2.3.9-1.3,1.5-3.2,2.8-3.9,1.3-.7,3.2-.2,5.1-.2-.2.4-.3.7-.5.9-3,4.5-6,9.1-8.9,13.6-.4.7-.7,1.6-.7,2.4,0,2.9,0,5.9,0,8.9h-4.7c0-1.9-.2-3.8,0-5.6.4-3.3-.6-6-2.6-8.6-1.4-1.8-2.5-3.8-3.8-5.7Z"/>
  <path class="cls-1" d="M202.4,98.7v-20.7h-8v-4.3h20.9v4.3h-8.1v21.7c-1.4,0-2.7,0-4,0-.3,0-.5-.5-.7-.8Z"/>
  <path class="cls-1" d="M184.6,89.1v-15.5h4.6v25.8h-4.6v-10.4Z"/>
</svg>